<svg xmlns="http://www.w3.org/2000/svg" xmlns:xlink="http://www.w3.org/1999/xlink" viewBox="0 0 445.25 749"><defs><style>.cls-1{fill:url(#radial-gradient);}.cls-2{fill:url(#linear-gradient);}.cls-3{fill:url(#radial-gradient-2);}.cls-4{fill:url(#radial-gradient-3);}.cls-5{fill:url(#radial-gradient-6);}.cls-6{fill:url(#linear-gradient-2);}.cls-7{fill:url(#radial-gradient-8);}.cls-8{fill:url(#radial-gradient-9);}.cls-9{fill:url(#radial-gradient-10);}.cls-10{fill:url(#radial-gradient-11);}.cls-11{fill:url(#radial-gradient-13);}.cls-12{fill:url(#linear-gradient-3);}</style><radialGradient id="radial-gradient" cx="303.95" cy="221.92" r="6.7" gradientUnits="userSpaceOnUse"><stop offset="0" stop-color="#c837ff"/><stop offset="1" stop-color="#1d2671"/></radialGradient><linearGradient id="linear-gradient" x1="-30.52" y1="442.09" x2="475.65" y2="306.46" gradientUnits="userSpaceOnUse"><stop offset="0" stop-color="#1d2671"/><stop offset="0.07" stop-color="#3d298c"/><stop offset="0.22" stop-color="#782fbd"/><stop offset="0.35" stop-color="#a433e1"/><stop offset="0.45" stop-color="#be36f7"/><stop offset="0.51" stop-color="#c837ff"/><stop offset="0.57" stop-color="#bd36f6"/><stop offset="0.67" stop-color="#a133de"/><stop offset="0.8" stop-color="#722eb7"/><stop offset="0.95" stop-color="#322882"/><stop offset="1" stop-color="#1d2671"/></linearGradient><radialGradient id="radial-gradient-2" cx="187.72" cy="151.99" r="170.41" gradientUnits="userSpaceOnUse"><stop offset="0.28" stop-color="#c837ff"/><stop offset="1" stop-color="#1d2671"/></radialGradient><radialGradient id="radial-gradient-3" cx="151.95" cy="222.68" r="151.69" xlink:href="#radial-gradient-2"/><radialGradient id="radial-gradient-6" cx="0.45" cy="224.04" r="11.02" xlink:href="#radial-gradient"/><linearGradient id="linear-gradient-2" x1="55.62" y1="278.38" x2="247.35" y2="208.6" gradientUnits="userSpaceOnUse"><stop offset="0" stop-color="#1d2671"/><stop offset="0.88" stop-color="#c837ff"/></linearGradient><radialGradient id="radial-gradient-8" cx="155.62" cy="553.33" r="27.29" xlink:href="#radial-gradient"/><radialGradient id="radial-gradient-9" cx="257.53" cy="597.01" r="170.41" xlink:href="#radial-gradient-2"/><radialGradient id="radial-gradient-10" cx="293.3" cy="526.32" r="151.69" xlink:href="#radial-gradient-2"/><radialGradient id="radial-gradient-11" cx="141.3" cy="527.08" r="6.7" xlink:href="#radial-gradient"/><radialGradient id="radial-gradient-13" cx="444.8" cy="524.95" r="11.02" xlink:href="#radial-gradient"/><linearGradient id="linear-gradient-3" x1="192.34" y1="555.76" x2="388.93" y2="442.26" gradientUnits="userSpaceOnUse"><stop offset="0.19" stop-color="#c837ff"/><stop offset="1" stop-color="#1d2671"/></linearGradient></defs><g id="Layer_2" data-name="Layer 2"><g id="Layer_1-2" data-name="Layer 1"><path class="cls-1" d="M304.25,222.5a83.32,83.32,0,0,0-.61-10.05q.36,5.22.36,10.55c0,2.81-.08,5.61-.23,8.38A81.46,81.46,0,0,0,304.25,222.5Z"/><path class="cls-2" d="M445.25,222.5a222.73,222.73,0,0,1-79.07,170.11c-1.32,1.11-2.66,2.22-4,3.3A221.45,221.45,0,0,1,225,445l-2.23,0h-.25l-2,0a151,151,0,0,0-64.34,15.17A152,152,0,0,0,218.58,749C97.51,746.87,0,648.07,0,526.5A222.59,222.59,0,0,1,79.07,356.4c1.33-1.12,2.66-2.23,4-3.31A221.45,221.45,0,0,1,220.27,304l2.23,0h.25l2,0a151,151,0,0,0,64.34-15.17A152,152,0,0,0,225,0C346.83,1.21,445.25,100.36,445.25,222.5Z"/><path class="cls-3" d="M374.75,152a151.89,151.89,0,0,1-150,152c.84,0,1.67-.05,2.5-.1.47,0,.94-.05,1.4-.09a81.28,81.28,0,0,0,14.74-2.42l1.54-.41c.79-.23,1.58-.46,2.35-.71.59-.18,1.18-.37,1.76-.57,1.26-.43,2.51-.89,3.74-1.38l1.31-.53,1.42-.61c.56-.24,1.11-.49,1.66-.75l1.64-.79,1.15-.58c1.3-.66,2.58-1.36,3.83-2.09l1.36-.82c.51-.31,1-.63,1.53-1s1-.65,1.51-1,1-.67,1.47-1c0,0,0,0,0,0,.48-.33.95-.67,1.42-1l0,0c.48-.35,1-.71,1.43-1.08s1-.77,1.47-1.16.89-.73,1.33-1.1,1.1-.93,1.63-1.41c.36-.32.72-.64,1.06-1l1-.91,1-1,.92-.92.74-.76c.52-.54,1-1.08,1.51-1.64s.74-.82,1.1-1.23,1-1.11,1.42-1.68c.31-.36.6-.72.88-1.09s.7-.88,1-1.33l.15-.2,1-1.33c.36-.48.7-1,1-1.47s.68-1,1-1.49.66-1,1-1.52.59-.94.88-1.42a80.68,80.68,0,0,0,8.25-18.77c.14-.47.28-.94.41-1.41.48-1.75.9-3.51,1.27-5.3.13-.62.25-1.24.36-1.87.34-1.87.61-3.77.82-5.68a81.46,81.46,0,0,0,.48-8.88,83.32,83.32,0,0,0-.61-10.05,152,152,0,0,0-302.95-4C7.88,92.86,103.37,1.16,220.52,0l2.23,0L225,0A152,152,0,0,1,374.75,152Z"/><path class="cls-4" d="M303.64,212.45c-.31-2.52-.74-5-1.27-7.44-.13-.61-.27-1.21-.42-1.82s-.27-1.09-.42-1.64c-.1-.38-.2-.76-.31-1.13-.38-1.39-.81-2.76-1.27-4.11-.11-.34-.23-.68-.35-1s-.23-.65-.35-1c-.21-.58-.43-1.15-.66-1.72-.92-2.35-1.95-4.65-3.09-6.88-.24-.48-.49-1-.74-1.43a80.23,80.23,0,0,0-4.87-8c-.29-.42-.58-.84-.88-1.25s-.66-.92-1-1.37c-.81-1.08-1.64-2.13-2.5-3.17l-.74-.87c-1.1-1.3-2.26-2.57-3.45-3.8-.37-.39-.75-.77-1.13-1.15s-.85-.84-1.28-1.24l-1.3-1.21c-.44-.4-.88-.8-1.33-1.18s-.85-.74-1.28-1.1l-.21-.17c-.4-.34-.8-.66-1.2-1a.32.32,0,0,0-.09-.08c-.45-.36-.9-.72-1.36-1.06s-.95-.72-1.43-1.07-1-.7-1.45-1l-1.06-.73-1.34-.88q-.75-.5-1.53-1h0c-.51-.32-1-.63-1.55-.93s-1.05-.61-1.58-.9q-.49-.28-1-.54c-.36-.2-.73-.39-1.1-.58s-.84-.43-1.26-.64l-1.3-.63c-.65-.31-1.3-.6-2-.89s-1.07-.47-1.61-.69l-1.15-.47-.86-.34-1.42-.52c-.53-.2-1.06-.38-1.6-.56a.64.64,0,0,0-.18-.06c-.57-.2-1.14-.38-1.72-.56l-1.16-.35-.92-.27a80.26,80.26,0,0,0-12.58-2.5c-.63-.08-1.27-.14-1.9-.2q-2.85-.27-5.76-.34l-1.95,0A152.1,152.1,0,0,0,83.08,353.09c-1.35,1.08-2.68,2.19-4,3.31a221.63,221.63,0,0,0-18.93,18A221.65,221.65,0,0,1,.91,239.69a.17.17,0,0,1,0-.07Q.26,231.15.25,222.5q0-7.06.44-14a152,152,0,0,1,303,4Z"/><path class="cls-1" d="M303.77,231.38c.15-2.77.23-5.57.23-8.38q0-5.33-.36-10.55a83.32,83.32,0,0,1,.61,10.05A81.46,81.46,0,0,1,303.77,231.38Z"/><path class="cls-1" d="M303.77,231.38c.15-2.77.23-5.57.23-8.38q0-5.33-.36-10.55a83.32,83.32,0,0,1,.61,10.05A81.46,81.46,0,0,1,303.77,231.38Z"/><path class="cls-5" d="M.9,239.62A152,152,0,0,1,0,223q0-7.35.69-14.53-.43,7-.44,14Q.25,231.14.9,239.62Z"/><path class="cls-1" d="M304,223q0-5.33-.36-10.55a83.32,83.32,0,0,1,.61,10.05,81.46,81.46,0,0,1-.48,8.88C303.92,228.61,304,225.81,304,223Z"/><path class="cls-6" d="M222.5,304l-2.23,0A221.45,221.45,0,0,0,83.08,353.09,152,152,0,0,1,222.75,141a81.5,81.5,0,0,0-.25,163Z"/><path class="cls-7" d="M141.25,526c0-2.81.08-5.61.23-8.38a81.46,81.46,0,0,0-.48,8.88,83.32,83.32,0,0,0,.61,10Q141.25,531.33,141.25,526ZM169,588l.64.56.63.53Z"/><path class="cls-8" d="M444.55,540.7C437.29,656,342.24,747.44,225.5,749h-.77l-2.23,0-2.23,0c-.57,0-1.13,0-1.69,0a152,152,0,0,1,2-303.93c-.84,0-1.67.06-2.5.1l-1.4.09-1.51.13c-.46,0-.92.08-1.37.13l-1.29.14-1.57.21-1.89.29-1.87.34-1.17.23-.19,0-1,.21c-.64.14-1.28.29-1.91.45s-1.12.28-1.68.43l-.22.06-1.17.33c-.61.17-1.21.36-1.81.55s-1.18.38-1.77.58c-1.26.42-2.5.88-3.73,1.37-.44.17-.89.35-1.33.54l-.54.23-.08,0-1.23.54c-.53.23-1.05.47-1.57.72s-.9.42-1.33.65-.74.36-1.1.55-.7.35-1,.54c-.52.27-1,.56-1.55.85s-1,.55-1.47.84l-1.19.71L180,457l-.78.48-.1.06-.3.19-1,.68c-.43.27-.86.56-1.28.86s-.95.65-1.42,1-.82.58-1.22.88l-.79.6c-.34.25-.67.51-1,.77s-.74.59-1.11.89l-.65.53-.11.09-1,.83-.79.7c-.17.14-.33.3-.5.45l-.25.22-1.14,1.06c-.45.42-.89.84-1.31,1.27s-.83.83-1.24,1.25a.38.38,0,0,0-.09.09c-.41.42-.81.85-1.21,1.28s-.69.75-1,1.13l-.37.42c-.35.39-.69.78-1,1.18s-.74.87-1.1,1.32-.81,1-1.2,1.52-.75,1-1.1,1.46-.72,1-1.07,1.48-.7,1-1,1.51-.68,1-1,1.53l-.49.78q-.25.39-.48.78c-.28.45-.55.9-.81,1.36l-.18.31,0,0c-.29.49-.57,1-.83,1.48s-.47.86-.7,1.3c-.88,1.68-1.71,3.4-2.47,5.16-.19.44-.38.88-.56,1.32s-.32.77-.48,1.15h0l-.17.44c-.14.36-.28.72-.41,1.07s-.34.91-.5,1.36-.41,1.17-.6,1.76c-.08.25-.17.51-.25.77l-.24.77c-.16.52-.32,1-.46,1.57,0,.16-.1.31-.14.47-.27.95-.52,1.91-.74,2.88-.07.26-.13.52-.19.78-.14.61-.27,1.23-.4,1.84s-.25,1.25-.36,1.87-.17.94-.24,1.41-.11.65-.15,1l-.15,1-.06.42c-.08.62-.15,1.25-.22,1.87a81.46,81.46,0,0,0-.48,8.88,83.32,83.32,0,0,0,.61,10,151,151,0,0,0,15.22,56.57h0A152,152,0,0,0,444.55,540.7Z"/><path class="cls-9" d="M445,526.5q0,7.07-.44,14c0,.06,0,.12,0,.17a152,152,0,0,1-287.71,52.42h0a151,151,0,0,1-15.22-56.57q.46,3.78,1.27,7.44c.13.61.27,1.21.42,1.82.57,2.34,1.23,4.63,2,6.88.11.34.23.68.35,1s.23.65.35,1c.21.58.43,1.15.66,1.72s.36.9.54,1.34c.12.27.23.55.35.82.25.6.52,1.2.79,1.8l.39.84c.1.21.2.43.31.64.19.41.39.82.59,1.22.33.64.65,1.27,1,1.9s.59,1.1.9,1.64c.12.22.25.44.38.66.27.48.56,1,.84,1.43a2.13,2.13,0,0,0,.16.25q.57.95,1.17,1.86c.37.57.74,1.13,1.12,1.69l.16.23c.29.42.58.84.88,1.25s.66.92,1,1.37c.8,1.08,1.63,2.13,2.49,3.17l.74.87.42.49.42.48c.42.48.85,1,1.29,1.43s.87.94,1.32,1.4.75.77,1.13,1.15.85.84,1.28,1.24l.65.61c.21.21.43.41.65.6.44.4.88.8,1.33,1.18l.64.56.63.53h0l.21.17c.4.34.8.66,1.2,1l0,0s0,0,.07.06l.06,0c.43.35.86.69,1.3,1s.82.63,1.24.93l.08.06c.8.59,1.62,1.16,2.45,1.72.5.34,1,.68,1.51,1s.89.57,1.34.84l.19.12h0c.51.32,1,.63,1.55.93s1,.61,1.58.9l1,.54.1,0,1,.52h0c.92.48,1.85.93,2.79,1.37.49.23,1,.46,1.47.67l.27.12c.53.24,1.07.47,1.61.69.35.15.69.29,1,.42s.71.29,1.07.42.9.35,1.36.5l.2.07c.34.14.69.25,1,.37l.6.2c.53.19,1.08.36,1.62.53l1.06.32c.34.11.69.21,1,.3l1.77.48,1.66.41,1.69.38c.61.13,1.22.26,1.84.37q1.59.31,3.21.54l.68.1,1.72.22c.63.08,1.27.14,1.9.2s1,.09,1.44.12l1,.07c1.1.07,2.2.12,3.31.15l1.94,0A152.1,152.1,0,0,0,362.17,395.91c1.35-1.08,2.69-2.19,4-3.3a223.32,223.32,0,0,0,18.93-18,221.6,221.6,0,0,1,59.22,134.52c0,.08,0,.16,0,.23Q445,517.86,445,526.5Z"/><path class="cls-10" d="M141.61,536.55a83.32,83.32,0,0,1-.61-10,81.46,81.46,0,0,1,.48-8.88c-.15,2.77-.23,5.57-.23,8.38Q141.25,531.32,141.61,536.55Z"/><path class="cls-10" d="M141.25,526q0,5.32.36,10.55a83.32,83.32,0,0,1-.61-10,81.46,81.46,0,0,1,.48-8.88C141.33,520.39,141.25,523.19,141.25,526Z"/><path class="cls-11" d="M444.56,540.53q.44-7,.44-14,0-8.64-.65-17.12a152,152,0,0,1,.9,16.62Q445.25,533.35,444.56,540.53Z"/><path class="cls-10" d="M141.25,526q0,5.32.36,10.55a83.32,83.32,0,0,1-.61-10,81.46,81.46,0,0,1,.48-8.88C141.33,520.39,141.25,523.19,141.25,526Z"/><path class="cls-12" d="M374.5,456a151.9,151.9,0,0,1-152,152,81.5,81.5,0,0,0,.25-163l2.23,0a221.45,221.45,0,0,0,137.19-49.07A151.69,151.69,0,0,1,374.5,456Z"/></g></g></svg>